<?xml version="1.0" encoding="UTF-8"?>
<svg id="Ebene_2" xmlns="http://www.w3.org/2000/svg" viewBox="0 0 1260.92 486.18">
    <defs>
        <style>.cls-1,.cls-2{stroke-width:0px;}.cls-2{fill:#898989;}</style>
    </defs>
    <g id="Ebene_2-2">
        <g id="Ebene_1-2">
            <path class="cls-1" fill="#fff"
                  d="m1192.45,276.39c-12.63,1.99-25.31,3.91-37.97,6.03-4.55.76-8.87,2.56-13.54,3.01-6.06.59-11.71.23-17.68-1.9-5.78-2.06-7.81-6.1-10.17-10.81-3.24-6.46-7.21-12.55-10.61-18.94-2.04-3.83-4.16-7.62-5.68-11.74-2.66-7.19-5.88-14.18-8.46-21.4-1.93-5.41-2.82-11.2-4.88-16.55-1.61-4.19-.25-8.93-3.04-12.88-.86-1.22-.4-3.4-.45-5.14-.09-3.39-.77-6.59-2.19-9.71-1.35-2.97-.26-6.21-.47-9.32-.57-8.45-1.93-16.84-1.58-25.35.13-3.23.07-6.46-.64-9.71-.64-2.96.95-5.73,2.39-8.16,3.03-5.13,7.09-9.43,12.32-12.41,3.26-1.86,7.1-2.05,10.69-2.71,12.75-2.36,25.32-.37,37.96,1.64,8.4,1.33,16.59,3.37,24.41,6.39,8.76,3.38,16.87,8.22,24.85,13.31,15.97,10.17,29.5,23.1,42.34,36.72,9.8,10.39,17.98,22.19,23.5,35.54,2.55,6.16,2.35,12.75,1.59,19.2-.63,5.36-7.38,9.1-12.67,7.84-4.39-1.05-8.84-2.41-13.4-1.75-3.29.48-6.28-.35-9.12-1.47-3.72-1.46-4.5-5.46-4.09-8.51,1.36-10.05-4.45-17.27-8.78-25.14-3.13-5.69-6.69-11.12-11.65-15.37-4.56-3.91-7.57-9.14-12.3-13.01-5.24-4.29-10.67-8.62-15.29-13.48-12.43-13.04-28.62-17.78-45.04-22.34-3.59-1-6.88.79-8.87,3.98-3.43,5.52-4.45,11.86-4.18,17.93.44,9.79,1.11,19.72,4,29.2,1.23,4.02,1.37,8.1,2.14,12.12.96,4.96,2.67,9.78,4.16,14.63,2.44,7.93,4.54,15.95,8.1,23.52,4.1,8.7,7.92,17.53,12.91,25.79,3.14,5.21,3.05,5.09,9.37,4,14.15-2.44,28.3-4.83,42.55-6.64,9.08-1.15,17.88-3.51,26.55-6.39,1.82-.61,3.07-2.05,4.65-3.01,4.58-2.77,9.07-1.42,13.52.36.75.3,1.42.73,2.29.73,5.94-.02,11.02,2.83,16.4,4.79,2.53.92,3.28,2.87,4.11,4.82,1.52,3.57-1.33,11.13-4.69,13.15-.78.47-1.53,1.05-2.18,1.68-15.19,14.8-30.59,29.39-45.48,44.5-11.2,11.37-22.91,22.28-33.09,34.62-6.41,7.77-13.09,15.3-19.29,23.27-6.79,8.73-12.64,18.1-19.31,26.88-6.08,7.98-12.29,15.86-17.53,24.41-8.68,14.16-18.55,27.51-27.57,41.43-4.4,6.79-9.67,12.91-14.12,19.65-1.02,1.55-2.71,2.73-4.4,2.45-6.62-1.1-13.46.45-19.96-1.7-1.63-.54-3.25-.12-4.86-.07-3.32.1-6.12-1.34-7.94-3.7-5.05-6.54-11.94-10.95-18.08-16.21-4.38-3.75-8.88-7.44-13.7-10.58-8.99-5.85-18.24-11.26-27.92-15.95-10.69-5.18-21.59-10.03-32.76-13.84-10.65-3.63-21.03-8.27-32.31-10.2-6.08-1.04-12.03-3.32-17.76-5.71-6.05-2.52-12.65-2.8-18.63-5.3-5.06-2.12-10.44-3.32-15.73-4.17-6.89-1.1-13.65-3.49-20.81-2.92-1.44.11-2.99-.43-4.41-.91-2.2-.73-4.24-1.08-6.25.53-.86.69-2.03.69-3.03.31-3.23-1.2-6.55-1.19-9.94-1.17-5.63.03-8.41-2.53-9.27-8.13-1.37-8.91,4.18-14.65,13.24-15.37,10.39-.83,20.02,2.78,30.06,3.69,14.28,1.29,27.95,5.48,41.83,8.62,6.18,1.4,12.1,3.92,18.26,5.4,10.49,2.51,20.5,6.49,30.8,9.48,9.54,2.77,18.81,6.28,28.29,9.16,10.44,3.17,19.7,9.04,29.87,12.82,12,4.46,22.47,11.79,33.48,18.06,5.2,2.96,9.82,6.94,14.64,10.54,1.64,1.22,2.59,1.88,4.18-.44,8.07-11.78,16.23-23.48,24.09-35.4,4-6.06,8.56-11.76,12.69-17.74,3.33-4.83,6.2-9.96,9.6-14.73,3.03-4.25,6.72-8.04,9.74-12.3,5.1-7.2,10.9-13.82,16.46-20.63,5.86-7.17,11.31-14.77,17.66-21.43,7.38-7.74,14.87-15.43,22.39-23.07,7.02-7.13,14.11-14.18,21.32-21.12,1.72-1.66,3.5-3.3,4.36-5.52v-.05Z"/>
            <path class="cls-1" fill="#fff"
                  d="m1090.19,240.83c-1.62-8.54-3.83-16.91-5.97-25.31-1.65-6.45-5.26-12.07-8.17-18-3.26-6.66-6.99-12.94-11.65-18.62-6.79-8.27-14.22-16-22.28-23.04-4.62-4.04-9.89-6.89-16.15-8.16-5.25-1.06-10.59-.61-15.84-1.92-4.61-1.15-8.53,1.85-10.02,6.2-1.1,3.19.88,9.36,3.95,10.78,9.76,4.53,16.02,13.09,23.25,20.36,8.17,8.22,12.58,19.17,17.62,29.48,2.84,5.8,4.58,12.09,6.29,18.37,3.81,14.04,5.67,28.31,5.6,42.81-.04,8.19-1.42,16.43-5.41,23.56-9.76,17.44-24.33,28.73-44.34,32.51-6.42,1.22-12.5,1.31-17.87-2.94-8.53-6.76-17.02-13.6-23.37-22.57-4.24-6-8.91-11.72-12.31-18.31-2.84-5.53-5.03-11.4-7.93-16.81-5.8-10.81-8.61-22.51-11.89-34.09-1.9-6.7-2.3-13.67-3.09-20.6-1.3-11.45-.47-22.58,3.6-33.12,6.28-16.26,17.1-28.78,33.5-35.82,4.84-2.08,7.16-5.47,6.63-9.78-.43-3.46-4.54-6.55-8.64-7.88-5.29-1.72-10.62-.69-15.88-1.3-4.56-.53-8.34.31-12.28,2.77-7.14,4.46-13.37,9.99-19.36,15.75-4.75,4.58-8.15,10.3-10.82,16.34-.82-.3-.93-.86-1.03-1.45-.93-5.58-3.2-10.75-5.06-16.02-2.6-7.37-5.88-14.46-9.37-21.49-3.01-6.07-6.3-12.01-9.17-18.15-3.8-8.13-9.31-15.32-13.05-23.52-2.17-4.76-5.1-8.78-11.38-9.22-5.39-.38-10.33.78-15.31,2.29-1.51.46-1.81,1.97-2.03,3.41-.48,3.11,1.46,4.88,3.22,7.09,4.32,5.44,6.53,12.19,10.39,17.96,4.81,7.2,7.86,15.22,10.55,23.39.51,1.52,1.47,2.82,2.01,4.38,3.06,8.86,6.22,17.7,8.16,26.87,1.64,7.73,6.86,14.8,4.42,23.3-.07.22-.04.47,0,.7,1.55,9.3,1.56,18.6,0,27.91-.6,3.58-1.36,4.27-4.83,3.24-3.55-1.05-7.08-2.21-10.53-3.57-16.38-6.46-31.57-15.31-46.99-23.68-10.28-5.58-20.19-11.69-29.05-19.42-2.4-2.09-4.96-4.18-7.79-5.55-3.11-1.5-6.68-1.95-10.19-1.6-1.76.18-2.16-.36-2.16-2.01,0-2.92.34-5.79.84-8.65,1.83-10.46,2.83-21.08,6.15-31.25,2.29-7,4.44-13.94,8.68-20.23,3.93-5.83-1.57-15.09-9.21-15.66-5.62-.42-11.3-.98-16.87.08-3.8.73-8.04,1.18-10.52,4.7-9.49,13.47-22.07,23.79-34.9,33.75-9.73,7.55-21.12,12.35-32.29,17.34-10.86,4.85-21.95,9.14-32.32,15.11-4.13,2.38-8.18,5.24-13.16,6.18-1.01-3.11-1.31-6.33-1.5-9.54-.4-6.73-.26-13.52-.97-20.22-1.29-12.29-.97-24.63-1.85-36.93-.45-6.32.24-12.72-.18-19.04-.56-8.38-.36-16.65.64-25.02.87-7.32-1.88-10.9-9.8-10.98-4.18-.04-8.13-.22-12.33.97-5.71,1.62-9.79,4.46-10.98,10.09-1.04,4.89-.76,9.98-.78,14.89-.03,8.07,1.84,16.11,1.65,24.26-.05,2.08,0,4.17.57,6.23,1.49,5.34,2.25,10.78,2.4,16.33.17,6.05-.04,12.18.89,18.13,1.23,7.9,2.57,15.75,2.55,23.77,0,1.38.39,2.78.46,4.11.36,7.1,1.12,14.28.36,21.29-.77,7.11,2.02,11.77,9.32,12.41,1.03.09,2.03.12,3.07.42,6.24,1.79,12.71,4.79,17.67-2.52.06-.08.22-.09.31-.16,7.53-6.42,16.67-10.31,24.81-15.78,8.82-5.94,19.13-8.63,28.74-12.83,8.97-3.92,18.45-6.57,27.1-11.3,5.01-2.74,10.25-5.04,15.63-7.66,0,1.47.21,2.57-.03,3.56-1.79,7.51-2.15,15.05-.92,22.68.09.55,0,1.13.01,1.69.14,4.95-1.05,9.74-1.74,14.58-.26,1.8,1.02,3.29.6,5.12-1.19,5.19-.87,10.35.64,15.44.31,1,.62,2,.31,3.08-1.41,5-.37,10.18.15,15.03.59,5.52,1.33,11.03,1.07,16.56-.47,10.2.55,20.31,1.64,30.39.37,3.41.1,6.9,1.04,10.27,2.22,7.94,1.64,16.23,2.8,24.33,1.45,10.15,1.07,20.56,3.48,30.65.33,1.39.26,2.86.42,4.72-22.47-10.89-46.25-14.51-70.04-17.97-23.97-3.48-48-5.87-72.3-2.16,5.18-5.35,10.46-10.37,16.4-14.51,9.64-6.73,19.56-13.05,28.98-20.14,6.37-4.8,12.62-9.74,18.82-14.75,2.01-1.63,2.73-3.47,2.01-5.79-.7-2.25-2.7-2.31-4.63-2.19-2.01.13-3.9-.22-5.82-.84-1.74-.57-3.64-.97-5.46-.95-5.47.05-10.95-.26-16.42.33-4.91.53-10.11-.01-13.23,5.09-1.24,2.04-3.14,3.39-5.08,4.71-6.65,4.53-13.29,9.08-19.9,13.66-3.65,2.53-7.25,5.13-10.88,7.69l-.8-.67c3.85-3.46,4.19-9.07,8.4-12.31.89-.69.94-1.76,1.18-2.81.78-3.43,1.14-6.92,2.43-10.29,2.05-5.37,4.47-10.84,5.05-16.45,1-9.56.93-19.26.82-28.9-.05-3.91-1.48-7.8-2.13-11.73-1.54-9.31-2.91-18.63-6.3-27.55-2.53-6.67-4.99-13.28-8.51-19.58-5.07-9.07-10.84-17.49-18.31-24.69-3.6-3.47-7.48-6.64-11.16-10.04-9.11-8.42-20.13-13.55-31.47-18.03-9.33-3.69-18.96-2.13-28.5-.72-2.71.4-4.58,3.3-3.81,6.02,1.03,3.66,3.29,6.3,7.09,7.44,2.88.86,5.86,1.52,8.57,2.78,23.63,10.99,40.11,28.71,49.41,53.02,6.05,15.83,9.01,32.28,9.67,49.21.25,6.54-.34,12.98-.88,19.46-.88,10.47-4.12,20.12-9.42,29.1-2.13,3.61-5.32,6.35-8.1,9.44-5.36,5.94-11.73,10.31-18.53,14.31-10.02,5.9-21.46,7.86-32.1,12-.53.21-1.14.19-1.72.25-6.47.63-12.85,1.93-19.29,2.78-8.65,1.14-17.16.69-25.74-.12-9.11-.87-17.04-4.95-25.01-9-5.57-2.83-9.43-7.68-14.53-11.55,8.6-1.46,9.26-7.93,5.12-12.56-2.93-3.28-7.03-5.84-11.58-7.35-6.25-2.08-12.52-4-15.57-11.1-7.29-16.97-13.55-34.13-14.56-52.84-.49-9.04.45-17.82,3.33-26.36,5.35-15.86,16.31-27.49,28.86-37.9,6.98-5.79,14.45-10.89,22.21-15.54,7.11-4.27,12.94-10.48,20.77-13.65.57-.23,1.01-.95,1.35-1.54,1.84-3.17,1.05-5.84-1.34-8.46-4.85-5.31-11.36-6.92-17.97-7.45-3.12-.25-6.5,1.52-9.62,2.75-10.5,4.14-19.69,10.57-29.01,16.76-6.76,4.49-13.14,9.49-19.59,14.82-1.46-3.85-2.88-7.4-4.15-11.01-1.89-5.36-4.53-10.39-7.67-15.05-2.84-4.21-6.61-7.78-9.68-11.85-4.4-5.84-9.39-11.13-14.4-16.42-5.53-5.84-11.01-11.73-16.59-17.52-5.58-5.79-10.37-12.25-19.56-13.41-7.4-.93-14.21.44-21.1,2.24-2.51.66-4.12,3.01-4.13,5.55-.02,2.73.25,6.02,2.99,7.44,8.7,4.52,14.37,12.39,21,19.05,5.94,5.96,11.46,12.47,17.06,18.83,6.84,7.77,13.23,15.83,17.18,25.44,2.09,5.09,4.52,10.19,4.73,15.89.07,2.05-.56,2.8-2.65,1.9-5.72-2.47-11.56-4.69-17.2-7.35-12.92-6.09-25.6-12.66-38.84-18.05-4.6-1.87-9.03-4.2-13.65-6.02-10.78-4.23-21.62-8.32-32.47-12.38-5.42-2.03-10.25-5.68-16.1-6.35-2.56-.3-2.48-1.39-2.26-3.14.54-4.26,1.05-8.5,1.16-12.81.14-5.53.17-11.07.36-16.57.32-9.19,2.36-18.28,5.51-27.02.43-1.2,1.07-2.28,1.14-3.63.26-5.17-8.63-12.02-14.3-10.66-2.55.61-4.69.44-7-.7-3-1.48-8.28-.45-10.33,2.02-4.8,5.78-9.86,11.41-14.11,17.59-5.52,8.02-11.61,15.53-18.27,22.58-5.96,6.31-12.48,12.09-18.01,18.85-7.3,8.92-14.88,17.59-22.32,26.39-3.2,3.79-6.3,7.67-9.54,11.43-3.44,3.98-7.49,7.4-10.84,12.38,0-4.84.08-8.75-.01-12.66-.78-34.52-1.59-69.05-2.41-103.57-.22-9.14-.21-9.41-9.01-10.95-5.69-.99-11.36.29-16.35,3.16-6.75,3.89-8.04,10.7-7.23,17.55.72,6.06.42,12.22,1.77,18.23.28,1.26.75,2.51.5,4.04-1.03,6.33-.15,12.75-.54,19.15-.35,5.75.92,11.55.93,17.37.03,11.92-.64,23.85.14,35.76.73,11.14-1.57,22.18-.84,33.35.2,3,.46,6.4-1.2,9.55-2.73,5.17.24,10.59,6.06,11.67,6.5,1.21,13,2.39,19.5,3.56,3.64.66,5.87-.66,7.04-4.51.37-1.19.89-1.9,1.8-2.72,6.32-5.66,12.64-11.34,18.77-17.2,12.52-11.97,24.09-24.85,35.59-37.79,3.05-3.43,4.9-8.09,8.32-10.99,4.85-4.12,7.71-10.1,13.31-13.41.6-.36,1.02-1.34,1.17-2.1.69-3.43,4.21-4.75,5.5-7.77-.77,12.69-1.95,25.23-2.81,37.79-1.14,16.69-2.4,33.37-2.91,50.08-.5,16.68-.59,33.41,0,50.08.4,11.24,1.11,22.51,1.81,33.76.74,11.84,2.01,23.67,1.77,35.58-.08,4.05-.2,8.17,1.02,12.19-36.11-23.01-76.04-32.21-118.29-34.85l.06-.03c.87-1.26,1.44-2.31,2.46-3.13,5.78-4.62,11.87-8.78,18.14-12.72,8.25-5.19,17.04-9.23,25.79-13.4,7.81-3.72,14.82-9.06,22.73-12.4,7.11-3,7.22-6.17,5.83-12.61-.52-2.39-2.02-4.02-4.64-4.59-6.17-1.35-12.11-2.92-18.73-2.25-5.17.53-10.25-.62-12.94,5.29-.08.18-.38.27-.58.38-6.44,3.62-12.68,7.72-19.39,10.77-11.19,5.08-21.62,11.47-31.92,18.01-10.84,6.89-21.52,14.12-31.08,22.86-3.91,3.58-7.85,7.43-13.51,8.64-2.79.6-4.93,4.7-4.51,7.55.33,2.27.97,4.51,1.34,6.78.45,2.71,1.88,4.15,4.7,4.15,9.05-.02,18.1.02,27.15-.1,1.19-.01,2.64-.57,3.49-1.38,1.96-1.87,4.34-2.11,6.74-2.18,9.05-.25,18.06-1.16,27.17-.1,12.13,1.41,24.07,3.55,35.82,6.79,8.36,2.31,16.37,5.56,24.43,8.76,11.02,4.38,21.13,10.28,29.68,18.26,6.89,6.44,13.37,13.53,18.08,21.93,1.53,2.73,3.3,5.32,5.06,7.91,1.69,2.48,4.35,4.08,7.11,3.73,6.51-.83,12.92.26,19.37.19,5.17-.05,7.31-2.42,7.2-7.68-.08-3.82-1.33-7.54-.93-11.41.3-2.95,2.44-4.87,5.61-4.59,4.59.41,9.16.93,13.61,2.3,6.03,1.86,7.74,1.23,11.67-3.6.73-.89,1.6-1.68,2.45-2.46,5.29-4.89,11.59-8.4,17.41-12.55,8.23-5.87,18.04-8.78,27.13-13.02,2.19-1.03,4.03-2.95,6.52-3.16,6.42-.54,12.12-3.69,18.62-4.44,15.03-1.73,30.01-3.92,45.15-4.58,1.62-.07,3.65-.73,4.93,1.53,4.94,8.72,13.18,14.11,20.73,20.21,5.52,4.46,11.89,7.52,18.15,10.68,6.56,3.31,13.1,6.71,20.48,8.28,8.74,1.87,17.43,3.88,26.33,4.8,5.53.57,11.04,1.7,16.56,1.75,9.77.09,19.58-.13,29.11-2.71,6.05-1.64,12.47-1.47,18.37-3.63,7.05-2.57,14.62-3.32,21.51-6.5,3.92-1.81,8.34-2.28,12.11-4.74,4.69-3.06,9.65-5.7,14.99-8.81-3.11,3.49-5.62,6.83-8.66,9.58-2.68,2.43-4.73,5.34-6.61,8.23-3.55,5.47-7.16,10.62-12.99,13.93-4.4,2.5-4.79,8.85-1.48,12.71,3.73,4.35,8.59,2.8,13.08,3.16,4.6.37,9.25-.25,13.85.77,3.18.7,5.73-.78,7.56-3.3,1.95-2.68,4.4-4.88,7.3-6.2,8.91-4.06,18.44-6.03,28.1-7.27,7.41-.95,14.88-.62,22.31-.9,8.12-.3,15.96,1.19,23.87,1.98,6.84.68,13.78,1.32,20.57,2.78,5.97,1.28,11.97,2.54,17.91,3.86,6.75,1.5,13.27,4.17,19.65,7.33,10.3,5.1,18.29,12.64,25.82,20.86,6.36,6.94,13.61,11.7,23.29,11.77,4.52.03,8.99.05,13.51.82,9.3,1.59,11.37-.8,11.26-10.55,0-.35-.06-.7-.13-1.04-1.53-7.33-2.8-14.72-4.65-21.97-2.63-10.32-4.15-20.83-6.02-31.28-2.93-16.41-5.08-32.94-6.44-49.55-1.29-15.73-2.63-31.47-2.84-47.27-.16-12.21-.03-24.42-.03-36.97,4.13,1.34,7.96,2.92,10.32,5.94,6.41,8.17,8.13,18.06,9.22,28.1.73,6.68.49,13.41,1,20.07.78,10.12.55,20.26,1.13,30.38.42,7.3-.46,14.7.17,21.97.91,10.48,2.53,20.88,2.14,31.47-.08,1.99.7,4.09.33,6.19-1.32,7.58-.23,15.28-1.07,22.9-.32,2.9,2.94,5.52,5.97,5.61,1.27.04,2.5.06,3.78.39,3.61.92,7.09,2.15,10.52,3.59,4.07,1.72,9.25,1.19,10.61-1.47,1.36-2.64,3.3-4.52,5.29-6.62,5.75-6.07,11.96-11.54,18.71-16.42,1.79-1.29,3.02-3.24,5.14-4.14,5.29-2.24,10.24-5.21,15.71-7.03,4.06-1.35,7.82-4.07,12.16-3.97,5.47.12,10.51-1.57,15.69-2.64,9.04-1.87,17.97-.6,26.89.49,6.21.76,11.92,3.85,18.24,4.45,6.29.59,11.68,2.85,16.1,7.76,1.71,1.9,2.98,4.38,5.53,5.62,5.08,2.47,10.18,4.92,15.64,6.36,8.4,2.21,16.84,4.11,25.47,5.46,14.47,2.27,28.28,1.27,41.92-4.26,6.87-2.79,12.92-6.59,18.68-11.12,3.25-2.55,7.27-4.01,10.25-7.02,4.77-4.83,8.08-10.7,11.43-16.49,3.26-5.62,5.18-11.71,6.46-18.18,1.13-5.71,1.34-11.52,2.67-17.17,1.14-4.85.78-9.86,1.02-14.76.34-7-1.75-13.85-3.06-20.75Zm-735.62,23.19c-4.54.17-9.01-.75-13.57-.58-16.36.61-32.57,2.16-48.54,5.99-14.6,3.5-28.36,9.16-41.87,15.55-.71.34-1.46.61-2.28.95-1.56-8.33-.72-16.62-1.55-24.79-1.28-12.55-.7-25.16-1.54-37.72-.05-.69.1-1.41,0-2.09-.9-5.86-.91-6.09,5.13-5.99,10.34.16,20.64-1.19,31.04.39,8.54,1.3,17.27,1.16,25.64-1.94,2.58-.95,4.07-2.69,4.34-5.33.25-2.37-.69-4.54-2.75-5.61-2.96-1.54-6.14-2.65-9.26-3.87-12.26-4.81-25.21-4.33-38.02-4.91-5.46-.25-10.89.28-16.33.46-1.63.05-2.34-.11-2.6-2.1-1.23-9.53-2.29-19.12-4.26-28.51-1.59-7.6-2.81-15.26-4.34-22.87-1.29-6.44-2.43-12.9-3.66-19.53h0c10.63,3.18,20.28,8.55,30.91,10.23,8.14,1.28,13.35,7.06,20.13,10.34,14.47,6.99,28.38,15.27,44.4,18.41,4.86.95,9.75,2.13,14.84.81,2.06-.53,4.38-.09,7.16-.09-3.67,5.44-4.12,11.6-6.08,17.28-1.35,3.89-1.78,8.01-1.31,12.29.34,3.12.41,6.56-.79,9.58-2.06,5.22-.8,10.38.12,15.43.96,5.27,2.47,10.43,4.29,15.57,1.39,3.91,1.78,8.55,3.45,12.52,2.52,6.02,4.38,12.42,8.62,17.61,1.5,1.84,1,2.43-1.32,2.52Zm466.41,53.27h0c0-2.1.07-3.82-.01-5.54-.59-13.02-1.35-26.04-.85-39.08.03-.84-1.02-2.39,1.32-2.33,7.83.19,15.18-2.83,22.9-3.59,7.02-.69,13.98-1.92,20.99-2.66,2.24-.24,4.42-.67,6.42-1.49,3.06-1.25,5.87-3.05,6-6.93.14-4.02-1.12-7.29-5-9.18-5.11-2.48-10.3-3.48-16.15-3.67-8.9-.28-17.42,1.53-26.1,2.46-3.08.33-5.93,1.9-9.13,2.08-1.42.08-2.28.11-1.95-1.58,1-5.2-.55-10.34-.28-15.54.26-4.97.06-9.96.06-14.9,11,4.73,21.73,9.77,32.79,13.93,6.56,2.47,13.85,2.44,20.75,3.8,8.18,1.62,14.5.33,29.32-4.1.61,7.04,3.55,13.65,2.85,20.89-.34,3.54.17,6.97,2.5,10.14,1.75,2.38,1.32,5.74,1.97,8.6,1.34,5.94,5.18,10.48,7.39,15.9,2.53,6.21,4.59,12.89,10.66,18.05-37.55-6.77-73.13-6.15-106.44,14.74Z"/>
            <path class="cls-2" d="m211.24,245.13c-.44-6.19-1.6-12.17-.56-18.23-.17,6.14,1.86,12.2.56,18.23Z"/>
        </g>
    </g>
</svg>